#!OML:ASF E:\motion texture\Top Level 1\Subject 1\Session 1\male.ASF
:FULLY-SPECIFIED
:DEGREES
357
root -3.32768 18.1167 3.44383 452.791 -81.0881 -446.946
lowerback -2.48024 3.07058 11.3764
upperback -3.05429 3.79575 3.95496
thorax -1.33277 1.64127 -2.15856
lowerneck -9.60655 -4.44434 -6.8186
upperneck -19.9755 -5.29441 9.28451
head -3.97052 -2.91912 4.08034
rclavicle -1.97294e-014 -9.54166e-015
rhumerus 45.282 7.01814 -81.6581
rradius 62.0894
rwrist -34.9892
rhand -11.801 -46.834
rfingers 7.12502
rthumb 14.2487 -436.325
lclavicle -1.97294e-014 -9.54166e-015
lhumerus -35.2514 29.8023 68.2733
lradius 22.0073
lwrist -36.8818
lhand -13.8747 22.8729
lfingers 7.12502
lthumb 12.2499 52.4942
rfemur -2.31441 4.40403 33.5806
rtibia 15.5433
rfoot -11.2214 -3.35162
rtoes 18.022
lfemur -29.8318 -0.5931 -5.79797
ltibia 25.6633
lfoot -5.21534 5.67721
ltoes -12.8563
358
root -3.46439 18.1084 3.44802 453.083 -81.0129 -447.145
lowerback -2.6039 3.09725 11.4263
upperback -3.12145 3.81623 3.9084
thorax -1.32563 1.64783 -2.22821
lowerneck -9.55677 -4.45328 -6.78755
upperneck -20.0728 -5.30422 9.34582
head -4.0054 -2.93163 4.09883
rclavicle -1.31695e-014 2.46493e-014
rhumerus 46.0655 7.29391 -80.6204
rradius 62.7295
rwrist -33.9165
rhand -12.1962 -46.3957
rfingers 7.12502
rthumb 13.8679 -435.913
lclavicle -1.31695e-014 2.46493e-014
lhumerus -35.3613 29.2256 68.7719
lradius 22.4639
lwrist -36.0015
lhand -13.8085 22.8765
lfingers 7.12502
lthumb 12.3137 52.4939
rfemur -1.99226 4.32713 33.6607
rtibia 15.6669
rfoot -11.4215 -3.23723
rtoes 17.5944
lfemur -29.7943 -0.79062 -5.69006
ltibia 24.2817
lfoot -5.07252 5.93745
ltoes -12.7839
359
root -3.60207 18.0996 3.453 453.43 -80.9478 -447.402
lowerback -2.73239 3.12498 11.4619
upperback -3.18507 3.83724 3.8621
thorax -1.31276 1.65534 -2.28946
lowerneck -9.50449 -4.46004 -6.76323
upperneck -20.1739 -5.31046 9.40987
head -4.04182 -2.94225 4.1196
rclavicle -2.78299e-015 7.55382e-014
rhumerus 46.7635 7.559 -79.5525
rradius 63.3723
rwrist -32.7889
rhand -12.6105 -45.9495
rfingers 7.12502
rthumb 13.4686 -435.494
lclavicle -2.78299e-015 7.55382e-014
lhumerus -35.4652 28.6622 69.2833
lradius 22.9282
lwrist -35.1403
lhand -13.7386 22.891
lfingers 7.12502
lthumb 12.3811 52.5044
rfemur -1.68285 4.2476 33.7216
rtibia 15.8259
rfoot -11.6149 -3.1103
rtoes 17.1311
lfemur -29.7387 -0.990607 -5.59671
ltibia 22.9687
lfoot -4.90684 6.19085
ltoes -12.6846
360
root -3.74069 18.0905 3.45875 453.832 -80.894 -447.72
lowerback -2.86364 3.15329 11.482
upperback -3.24461 3.85857 3.81553
thorax -1.29481 1.66374 -2.34229
lowerneck -9.45036 -4.46418 -6.74424
upperneck -20.2792 -5.31276 9.47546
head -4.07997 -2.95087 4.14204
rclavicle -4.32357e-015 7.95139e-015
rhumerus 47.3763 7.81647 -78.4576
rradius 64.0215
rwrist -31.6
rhand -13.0369 -45.4923
rfingers 7.12502
rthumb 13.0576 -435.064
lclavicle -4.32357e-015 7.95139e-015
lhumerus -35.562 28.1158 69.8044
lradius 23.3983
lwrist -34.3078
lhand -13.6678 22.9084
lfingers 7.12502
lthumb 12.4494 52.5176
rfemur -1.38595 4.16709 33.7616
rtibia 16.0227
rfoot -11.7997 -2.97259
rtoes 16.6422
lfemur -29.6661 -1.19093 -5.52076
ltibia 21.732
lfoot -4.71932 6.43153
ltoes -12.5271
361
root -3.88029 18.0811 3.46533 454.296 -80.8529 -448.105
lowerback -2.99754 3.18249 11.4865
upperback -3.29966 3.88068 3.76807
thorax -1.27134 1.67332 -2.38722
lowerneck -9.39424 -4.46586 -6.73125
upperneck -20.3883 -5.31122 9.54324
head -4.11968 -2.95751 4.16646
rclavicle -2.44008e-014 -1.82882e-014
rhumerus 47.9041 8.06938 -77.3389
rradius 64.6796
rwrist -30.35
rhand -13.4776 -45.0254
rfingers 7.12502
rthumb 12.6328 -434.623
lclavicle -2.44008e-014 -1.82882e-014
lhumerus -35.6503 27.5778 70.338
lradius 23.8763
lwrist -33.4987
lhand -13.5908 22.9345
lfingers 7.12502
lthumb 12.5236 52.5392
rfemur -1.10247 4.08436 33.778
rtibia 16.2605
rfoot -11.9748 -2.81978
rtoes 16.1203
lfemur -29.5778 -1.38975 -5.46506
ltibia 20.5787
lfoot -4.51349 6.66318
ltoes -12.3088
362
root -4.02074 18.0715 3.47268 454.814 -80.8246 -448.551
lowerback -3.13181 3.21141 11.4749
upperback -3.35066 3.90253 3.71979
thorax -1.24425 1.68348 -2.4241
lowerneck -9.33293 -4.46448 -6.72131
upperneck -20.5044 -5.30568 9.61045
head -4.16265 -2.96228 4.1917
rclavicle -3.0091e-014 5.32743e-014
rhumerus 48.3484 8.32222 -76.2012
rradius 65.3479
rwrist -29.0389
rhand -13.9373 -44.5429
rfingers 7.12502
rthumb 12.1896 -434.168
lclavicle -3.0091e-014 5.32743e-014
lhumerus -35.7314 27.05 70.8809
lradius 24.3615
lwrist -32.72
lhand -13.5114 22.9611
lfingers 7.12502
lthumb 12.6002 52.5611
rfemur -0.834332 3.99861 33.7699
rtibia 16.5428
rfoot -12.1365 -2.65276
rtoes 15.5712
lfemur -29.4755 -1.58571 -5.4311
ltibia 19.5153
lfoot -4.2957 6.89093
ltoes -12.0547
363
root -4.16201 18.0617 3.48083 455.384 -80.8082 -449.057
lowerback -3.26506 3.23995 11.4482
upperback -3.39743 3.92422 3.67069
thorax -1.21406 1.69423 -2.45363
lowerneck -9.26955 -4.46039 -6.71626
upperneck -20.6247 -5.29623 9.67848
head -4.20741 -2.96506 4.21834
rclavicle 1.40392e-014 -5.725e-014
rhumerus 48.7099 8.57781 -75.0462
rradius 66.0311
rwrist -27.6702
rhand -14.4127 -44.0599
rfingers 7.12502
rthumb 11.7311 -433.711
lclavicle 1.40392e-014 -5.725e-014
lhumerus -35.8025 26.5309 71.4335
lradius 24.8533
lwrist -31.9735
lhand -13.4309 22.9911
lfingers 7.12502
lthumb 12.6778 52.5863
rfemur -0.583239 3.90845 33.7373
rtibia 16.8728
rfoot -12.281 -2.46917
rtoes 14.9944
lfemur -29.3607 -1.77557 -5.41975
ltibia 18.547
lfoot -4.06762 7.10805
ltoes -11.7556
364
root -4.30404 18.0517 3.48976 456.009 -80.8049 -449.628
lowerback -3.39585 3.26758 11.4055
upperback -3.43898 3.94534 3.62079
thorax -1.18069 1.70546 -2.47519
lowerneck -9.2054 -4.45285 -6.71981
upperneck -20.7497 -5.28116 9.75117
head -4.25384 -2.96495 4.24822
rclavicle -4.19187e-014 -3.26007e-014
rhumerus 48.9931 8.83947 -73.8794
rradius 66.7304
rwrist -26.2463
rhand -14.893 -43.5864
rfingers 7.12502
rthumb 11.268 -433.264
lclavicle -4.19187e-014 -3.26007e-014
lhumerus -35.8622 26.0128 71.9996
lradius 25.355
lwrist -31.2543
lhand -13.3496 23.0212
lfingers 7.12502
lthumb 12.7562 52.6115
rfemur -0.350547 3.81491 33.6778
rtibia 17.2539
rfoot -12.4049 -2.2688
rtoes 14.3965
lfemur -29.2335 -1.95617 -5.434
ltibia 17.6767
lfoot -3.83354 7.30532
ltoes -11.4143
365
root -4.44675 18.0417 3.49947 456.689 -80.8135 -450.263
lowerback -3.52326 3.29407 11.3483
upperback -3.47554 3.96576 3.56987
thorax -1.14479 1.71701 -2.49005
lowerneck -9.13724 -4.44206 -6.72479
upperneck -20.8828 -5.26219 9.8217
head -4.3038 -2.96311 4.27817
rclavicle 5.81445e-015 -3.73715e-014
rhumerus 49.2001 9.10978 -72.705
rradius 67.4472
rwrist -24.7726
rhand -15.3773 -43.1199
rfingers 7.12502
rthumb 10.8009 -432.822
lclavicle 5.81445e-015 -3.73715e-014
lhumerus -35.9111 25.4873 72.5798
lradius 25.8693
lwrist -30.5568
lhand -13.27 23.0459
lfingers 7.12502
lthumb 12.8329 52.6314
rfemur -0.139569 3.71699 33.5919
rtibia 17.6909
rfoot -12.5036 -2.04891
rtoes 13.7775
lfemur -29.095 -2.12338 -5.47422
ltibia 16.9063
lfoot -3.59684 7.47566
ltoes -11.0375
366
root -4.59018 18.0318 3.50986 457.423 -80.8338 -450.964
lowerback -3.64758 3.31889 11.2764
upperback -3.50482 3.98465 3.51803
thorax -1.10395 1.7287 -2.4978
lowerneck -9.06864 -4.42659 -6.74002
upperneck -21.0215 -5.23549 9.89988
head -4.35568 -2.95741 4.31263
rclavicle 5.46658e-015 1.55052e-014
rhumerus 49.3366 9.39064 -71.5294
rradius 68.1812
rwrist -23.2519
rhand -15.8571 -42.6563
rfingers 7.12502
rthumb 10.338 -432.382
lclavicle 5.46658e-015 1.55052e-014
lhumerus -35.943 24.972 73.168
lradius 26.3886
lwrist -29.8974
lhand -13.1927 23.0733
lfingers 7.12502
lthumb 12.9075 52.6541
rfemur 0.0492487 3.61659 33.4796
rtibia 18.1863
rfoot -12.5723 -1.81206
rtoes 13.1447
lfemur -28.9423 -2.27582 -5.54103
ltibia 16.234
lfoot -3.35819 7.62024
ltoes -10.6226
367
root -4.73405 18.0219 3.52111 458.227 -80.8662 -451.745
lowerback -3.76499 3.34328 11.1913
upperback -3.52957 4.00448 3.46443
thorax -1.06274 1.74138 -2.50041
lowerneck -9.00028 -4.40954 -6.75263
upperneck -21.1641 -5.20796 9.96997
head -4.40931 -2.95133 4.34434
rclavicle 1.71452e-015 3.97569e-015
rhumerus 49.4043 9.68376 -70.3493
rradius 68.9392
rwrist -21.7008
rhand -16.3402 -42.1919
rfingers 7.12502
rthumb 9.87199 -431.94
lclavicle 1.71452e-015 3.97569e-015
lhumerus -35.9626 24.4361 73.7739
lradius 26.9257
lwrist -29.2495
lhand -13.1197 23.0916
lfingers 7.12502
lthumb 12.9778 52.668
rfemur 0.209796 3.51292 33.3379
rtibia 18.7444
rfoot -12.6031 -1.55642
rtoes 12.5016
lfemur -28.7785 -2.41017 -5.63723
ltibia 15.6595
lfoot -3.1175 7.73601
ltoes -10.1761
368
root -4.87849 18.0122 3.53307 459.093 -80.9111 -452.601
lowerback -3.87512 3.36583 11.0911
upperback -3.54896 4.02349 3.40947
thorax -1.0209 1.75427 -2.49647
lowerneck -8.92998 -4.38741 -6.77375
upperneck -21.3138 -5.17255 10.046
head -4.46573 -2.94141 4.37985
rclavicle -3.16565e-014 -2.62396e-014
rhumerus 49.4073 9.99163 -69.1739
rradius 69.72
rwrist -20.118
rhand -16.818 -41.7247
rfingers 7.12502
rthumb 9.41094 -431.495
lclavicle -3.16565e-014 -2.62396e-014
lhumerus -35.9656 23.8968 74.3903
lradius 27.4725
lwrist -28.6307
lhand -13.0479 23.1217
lfingers 7.12502
lthumb 13.0471 52.6937
rfemur 0.342607 3.40759 33.1674
rtibia 19.3666
rfoot -12.5901 -1.2857
rtoes 11.8603
lfemur -28.6007 -2.52429 -5.76412
ltibia 15.1797
lfoot -2.87663 7.81772
ltoes -9.6974
369
root -5.02338 18.0027 3.54575 460.036 -80.9685 -453.543
lowerback -3.97866 3.38761 10.9755
upperback -3.56375 4.0431 3.3527
thorax -0.978653 1.76804 -2.48617
lowerneck -8.85406 -4.36162 -6.79925
upperneck -21.4723 -5.13214 10.123
head -4.5261 -2.92918 4.41699
rclavicle 6.88292e-015 5.1684e-015
rhumerus 49.3491 10.3137 -68.0085
rradius 70.5228
rwrist -18.5093
rhand -17.2925 -41.2506
rfingers 7.12502
rthumb 8.95306 -431.041
lclavicle 6.88292e-015 5.1684e-015
lhumerus -35.9539 23.3391 75.0209
lradius 28.0354
lwrist -28.0299
lhand -12.9782 23.151
lfingers 7.12502
lthumb 13.1142 52.7186
rfemur 0.44302 3.30171 32.9666
rtibia 20.0561
rfoot -12.5272 -1.00183
rtoes 11.2346
lfemur -28.4103 -2.61689 -5.92279
ltibia 14.7928
lfoot -2.63801 7.86645
ltoes -9.19053
